<svg width="34" height="40" viewBox="0 0 34 40" fill="none" xmlns="http://www.w3.org/2000/svg">
<path d="M13.1677 6.62524H19.8758H33.1263V23.3126V40C33.1263 40 28.8684 28.9091 26.5011 27.412C24.2937 26.0161 19.7102 26.501 19.7102 26.501C19.7102 26.501 30.8075 13.2505 26.5011 13.2505C22.6201 13.2505 16.5632 13.2505 16.5632 13.2505H13.1677V6.62524Z" fill="black"/>
<path d="M5.63159 0H12.2568V19.6687V30.2277C12.2568 33.8716 23.2713 40 23.2713 40H14.2444H9.85519H7.61917H6.7082H5.63159V38.5559V37.5259V35.4658V31.3458V23.1056V0Z" fill="black"/>
<rect y="6.62524" width="8.77847" height="6.62526" fill="black"/>
<rect x="26.3354" width="6.62526" height="5.13458" fill="black"/>
</svg>
