<svg width="81" height="68" viewBox="0 0 81 68" fill="none" xmlns="http://www.w3.org/2000/svg">
<path d="M65.5141 25.8871L65.5441 26.3862L65.5141 25.8871ZM3.09899 67.2987C3.26401 67.5201 3.57727 67.5658 3.79869 67.4008L7.40683 64.7117C7.62824 64.5467 7.67396 64.2334 7.50894 64.012C7.34393 63.7906 7.03066 63.7449 6.80925 63.9099L3.60201 66.3002L1.21169 63.093C1.04667 62.8716 0.73341 62.8258 0.511997 62.9909C0.290583 63.1559 0.244865 63.4691 0.409882 63.6906L3.09899 67.2987ZM39.448 0.502681C39.1733 0.531379 38.974 0.777289 39.0027 1.05194C39.0314 1.32658 39.2773 1.52596 39.5519 1.49727L39.448 0.502681ZM65.5441 26.3862C69.0196 26.1774 71.7863 26.1855 73.9356 26.3772C76.0934 26.5696 77.5902 26.944 78.5524 27.4409C79.4984 27.9293 79.8744 28.5028 79.9349 29.1133C79.9997 29.7682 79.7187 30.6044 79.0301 31.6267C77.6578 33.664 74.8791 36.1341 71.3066 38.8122C67.7485 41.4795 63.4548 44.316 59.1015 47.0909C56.9255 48.4779 54.7371 49.848 52.6199 51.1731C50.5034 52.4977 48.4576 53.7776 46.5703 54.9822C42.8053 57.3852 39.639 59.5083 37.7904 61.1042C37.3262 61.505 36.935 61.881 36.6348 62.2274C36.3407 62.5666 36.1053 62.9096 35.9927 63.2451C35.8735 63.6003 35.8792 64.0041 36.1649 64.3353C36.4156 64.626 36.8081 64.7669 37.2211 64.8391C38.0611 64.9858 39.3855 64.9116 41.2274 64.6286C43.0868 64.3428 45.5277 63.8348 48.6311 63.078L48.3942 62.1065C45.3039 62.8601 42.8944 63.3606 41.0755 63.6402C39.2394 63.9223 38.0578 63.9701 37.3932 63.854C37.0539 63.7947 36.9444 63.708 36.9221 63.6821C36.9183 63.6777 36.9198 63.6798 36.9195 63.6776C36.9185 63.6693 36.9168 63.6345 36.9407 63.5633C36.9916 63.4117 37.1272 63.186 37.3905 62.8823C37.6475 62.5857 37.9998 62.2445 38.4439 61.8611C40.2287 60.3202 43.3331 58.2347 47.1083 55.8251C48.9912 54.6234 51.0329 53.346 53.1504 52.0208C55.2672 50.696 57.459 49.3237 59.639 47.9342C63.9972 45.1561 68.317 42.3032 71.9064 39.6124C75.4814 36.9324 78.3841 34.3757 79.8595 32.1853C80.5948 31.0937 81.0291 30.0157 80.93 29.0147C80.8264 27.9692 80.159 27.145 79.0112 26.5523C77.8796 25.968 76.2322 25.578 74.0244 25.3812C71.8081 25.1835 68.9879 25.1775 65.4841 25.388L65.5441 26.3862ZM48.6311 63.078C54.8449 61.5628 58.9611 59.8369 61.3526 58.0249C62.5516 57.1164 63.3483 56.1628 63.7377 55.1721C64.1327 54.167 64.0927 53.1623 63.687 52.2067C62.8956 50.3425 60.7336 48.7028 57.8343 47.3818C54.9066 46.048 51.1194 44.9902 46.9121 44.3535C38.5027 43.0808 28.325 43.4774 19.8497 46.8022C11.3551 50.1346 4.53734 56.429 3.00514 66.9277L3.99466 67.0721C5.46248 57.0145 11.965 50.9695 20.2149 47.7332C28.484 44.4893 38.475 44.088 46.7625 45.3422C50.9036 45.9689 54.5968 47.0057 57.4197 48.2918C60.2708 49.5909 62.1293 51.0966 62.7665 52.5975C63.0751 53.3244 63.1014 54.0572 62.807 54.8063C62.5069 55.5697 61.8584 56.387 60.7487 57.2278C58.5228 58.9144 54.5677 60.6011 48.3942 62.1065L48.6311 63.078ZM65.4841 25.388C56.4053 25.9336 51.4314 19.8093 47.9906 13.412C47.1327 11.817 46.3759 10.2152 45.6768 8.70643C44.9802 7.2033 44.3365 5.78235 43.7142 4.57334C43.0944 3.36933 42.4745 2.33209 41.8122 1.61068C41.1492 0.888514 40.3702 0.40632 39.448 0.502681L39.5519 1.49727C40.0197 1.44839 40.5093 1.67026 41.0755 2.28698C41.6424 2.90446 42.2124 3.84095 42.825 5.03103C43.4351 6.21611 44.0664 7.60962 44.7694 9.12687C45.4699 10.6385 46.2371 12.263 47.1099 13.8857C50.5917 20.3592 55.8449 26.9691 65.5441 26.3862L65.4841 25.388Z" fill="black"/>
</svg>
